<?xml version="1.0" encoding="UTF-8" standalone="no"?>
<!DOCTYPE svg PUBLIC "-//W3C//DTD SVG 1.1//EN"
 "http://www.w3.org/Graphics/SVG/1.1/DTD/svg11.dtd">
<!-- Generated by graphviz version 14.1.3 (20260303.0454)
 -->
<!-- Title: Hierarchy Pages: 1 -->
<svg width="118pt" height="138pt"
 viewBox="0.00 0.00 118.00 138.00" xmlns="http://www.w3.org/2000/svg" xmlns:xlink="http://www.w3.org/1999/xlink">
<g id="graph0" class="graph" transform="scale(1 1) rotate(0) translate(4 133.5)">
<title>Hierarchy</title>
<polygon fill="white" stroke="none" points="-4,4 -4,-133.5 114,-133.5 114,4 -4,4"/>
<!-- dish -->
<g id="node1" class="node">
<title>dish</title>
<polygon fill="none" stroke="black" points="81.5,-129.5 27.5,-129.5 27.5,-93.5 81.5,-93.5 81.5,-129.5"/>
<text xml:space="preserve" text-anchor="middle" x="54.5" y="-106.45" font-family="Times New Roman,serif" font-size="14.00">dish</text>
</g>
<!-- spice -->
<g id="node2" class="node">
<title>spice</title>
<polygon fill="none" stroke="black" points="109,-41 0,-41 0,0 109,0 109,-41"/>
<text xml:space="preserve" text-anchor="middle" x="54.5" y="-23.7" font-family="Times New Roman,serif" font-size="14.00">spice</text>
<text xml:space="preserve" text-anchor="middle" x="54.5" y="-7.2" font-family="Times New Roman,serif" font-size="14.00">(базовый класс)</text>
</g>
<!-- dish&#45;&gt;spice -->
<g id="edge1" class="edge">
<title>dish&#45;&gt;spice</title>
<path fill="none" stroke="black" d="M54.5,-93.34C54.5,-81.85 54.5,-66.4 54.5,-52.77"/>
<polygon fill="black" stroke="black" points="58,-52.92 54.5,-42.92 51,-52.92 58,-52.92"/>
<text xml:space="preserve" text-anchor="middle" x="82.25" y="-62.2" font-family="Times New Roman,serif" font-size="14.00">содержит</text>
</g>
</g>
</svg>
