<?xml version="1.0" encoding="UTF-8" standalone="no"?>
<!DOCTYPE svg PUBLIC "-//W3C//DTD SVG 1.1//EN"
 "http://www.w3.org/Graphics/SVG/1.1/DTD/svg11.dtd">
<!-- Generated by graphviz version 14.1.3 (20260303.0454)
 -->
<!-- Title: G Pages: 1 -->
<svg width="1183pt" height="135pt"
 viewBox="0.00 0.00 1183.00 135.00" xmlns="http://www.w3.org/2000/svg" xmlns:xlink="http://www.w3.org/1999/xlink">
<g id="graph0" class="graph" transform="scale(1 1) rotate(0) translate(4 130.5)">
<title>G</title>
<polygon fill="white" stroke="none" points="-4,4 -4,-130.5 1178.5,-130.5 1178.5,4 -4,4"/>
<!-- dish -->
<g id="node1" class="node">
<title>dish</title>
<polygon fill="none" stroke="black" points="0,-90 0,-126 1174.5,-126 1174.5,-90 0,-90"/>
<text xml:space="preserve" text-anchor="middle" x="20.38" y="-102.58" font-family="Arial" font-size="14.00">dish</text>
<polyline fill="none" stroke="black" points="40.75,-90 40.75,-126"/>
<text xml:space="preserve" text-anchor="middle" x="88.12" y="-102.58" font-family="Arial" font-size="14.00">name : string</text>
<polyline fill="none" stroke="black" points="135.5,-90 135.5,-126"/>
<text xml:space="preserve" text-anchor="middle" x="188.88" y="-102.58" font-family="Arial" font-size="14.00">weight : double</text>
<polyline fill="none" stroke="black" points="242.25,-90 242.25,-126"/>
<text xml:space="preserve" text-anchor="middle" x="306.88" y="-102.58" font-family="Arial" font-size="14.00">base_cost : double</text>
<polyline fill="none" stroke="black" points="371.5,-90 371.5,-126"/>
<text xml:space="preserve" text-anchor="middle" x="420.38" y="-102.58" font-family="Arial" font-size="14.00">spice1 : spice</text>
<polyline fill="none" stroke="black" points="469.25,-90 469.25,-126"/>
<text xml:space="preserve" text-anchor="middle" x="518.12" y="-102.58" font-family="Arial" font-size="14.00">spice2 : spice</text>
<polyline fill="none" stroke="black" points="567,-90 567,-126"/>
<text xml:space="preserve" text-anchor="middle" x="615.88" y="-102.58" font-family="Arial" font-size="14.00">spice3 : spice</text>
<polyline fill="none" stroke="black" points="664.75,-90 664.75,-126"/>
<text xml:space="preserve" text-anchor="middle" x="691.88" y="-102.58" font-family="Arial" font-size="14.00">+ init()</text>
<polyline fill="none" stroke="black" points="719,-90 719,-126"/>
<text xml:space="preserve" text-anchor="middle" x="751" y="-102.58" font-family="Arial" font-size="14.00">+ read()</text>
<polyline fill="none" stroke="black" points="783,-90 783,-126"/>
<text xml:space="preserve" text-anchor="middle" x="822.5" y="-102.58" font-family="Arial" font-size="14.00">+ display()</text>
<polyline fill="none" stroke="black" points="862,-90 862,-126"/>
<text xml:space="preserve" text-anchor="middle" x="939.75" y="-102.58" font-family="Arial" font-size="14.00">+ calculate_total_cost()</text>
<polyline fill="none" stroke="black" points="1017.5,-90 1017.5,-126"/>
<text xml:space="preserve" text-anchor="middle" x="1096" y="-102.58" font-family="Arial" font-size="14.00">+ get_cheapest_spice()</text>
</g>
<!-- spice -->
<g id="node2" class="node">
<title>spice</title>
<polygon fill="none" stroke="black" points="494.12,-0.5 494.12,-36.5 1148.38,-36.5 1148.38,-0.5 494.12,-0.5"/>
<text xml:space="preserve" text-anchor="middle" x="517.88" y="-13.07" font-family="Arial" font-size="14.00">spice</text>
<polyline fill="none" stroke="black" points="541.62,-0.5 541.62,-36.5"/>
<text xml:space="preserve" text-anchor="middle" x="620.88" y="-13.07" font-family="Arial" font-size="14.00">cost_per_gram : double</text>
<polyline fill="none" stroke="black" points="700.12,-0.5 700.12,-36.5"/>
<text xml:space="preserve" text-anchor="middle" x="764.38" y="-13.07" font-family="Arial" font-size="14.00">grams_per_kg : int</text>
<polyline fill="none" stroke="black" points="828.62,-0.5 828.62,-36.5"/>
<text xml:space="preserve" text-anchor="middle" x="855.75" y="-13.07" font-family="Arial" font-size="14.00">+ init()</text>
<polyline fill="none" stroke="black" points="882.88,-0.5 882.88,-36.5"/>
<text xml:space="preserve" text-anchor="middle" x="914.88" y="-13.07" font-family="Arial" font-size="14.00">+ read()</text>
<polyline fill="none" stroke="black" points="946.88,-0.5 946.88,-36.5"/>
<text xml:space="preserve" text-anchor="middle" x="986.38" y="-13.07" font-family="Arial" font-size="14.00">+ display()</text>
<polyline fill="none" stroke="black" points="1025.88,-0.5 1025.88,-36.5"/>
<text xml:space="preserve" text-anchor="middle" x="1087.12" y="-13.07" font-family="Arial" font-size="14.00">+ calculate_cost()</text>
</g>
<!-- dish&#45;&gt;spice -->
<g id="edge1" class="edge">
<title>dish:f4&#45;&gt;spice:f0</title>
<path fill="none" stroke="black" d="M420.38,-89.5C420.38,-48.03 443.61,-22.87 482.37,-19.02"/>
<polygon fill="black" stroke="black" points="491.91,-18.56 482.14,-23.53 488.13,-18.74 481.92,-19.04 481.92,-19.04 481.92,-19.04 488.13,-18.74 481.7,-14.54 491.91,-18.56"/>
<text xml:space="preserve" text-anchor="middle" x="454.39" y="-58.2" font-family="Times New Roman,serif" font-size="14.00">содержит</text>
</g>
<!-- dish&#45;&gt;spice -->
<g id="edge2" class="edge">
<title>dish:f5&#45;&gt;spice:f0</title>
<path fill="none" stroke="black" d="M518.12,-89.5C518.12,-70.36 517.96,-62.99 517.9,-48.09"/>
<polygon fill="black" stroke="black" points="517.88,-38.22 522.4,-48.21 517.88,-42 517.9,-48.22 517.9,-48.22 517.9,-48.22 517.88,-42 513.4,-48.23 517.88,-38.22"/>
<text xml:space="preserve" text-anchor="middle" x="545.81" y="-58.2" font-family="Times New Roman,serif" font-size="14.00">содержит</text>
</g>
<!-- dish&#45;&gt;spice -->
<g id="edge3" class="edge">
<title>dish:f6&#45;&gt;spice:f0</title>
<path fill="none" stroke="black" d="M615.88,-89.5C615.88,-66.48 597.32,-66.27 577.25,-55 557.53,-43.92 530.21,-57.46 521.03,-47.46"/>
<polygon fill="black" stroke="black" points="518.23,-38.17 525.42,-46.44 519.32,-41.79 521.11,-47.74 521.11,-47.74 521.11,-47.74 519.32,-41.79 516.8,-49.04 518.23,-38.17"/>
<text xml:space="preserve" text-anchor="middle" x="636.52" y="-58.2" font-family="Times New Roman,serif" font-size="14.00">содержит</text>
</g>
</g>
</svg>
