<?xml version="1.0" encoding="UTF-8" standalone="no"?>
<!DOCTYPE svg PUBLIC "-//W3C//DTD SVG 1.1//EN"
 "http://www.w3.org/Graphics/SVG/1.1/DTD/svg11.dtd">
<!-- Generated by graphviz version 14.1.3 (20260303.0454)
 -->
<!-- Title: testlab3/testlab3.cpp Pages: 1 -->
<svg width="185pt" height="84pt"
 viewBox="0.00 0.00 185.00 84.00" xmlns="http://www.w3.org/2000/svg" xmlns:xlink="http://www.w3.org/1999/xlink">
<g id="graph0" class="graph" transform="scale(1 1) rotate(0) translate(4 80)">
<title>testlab3/testlab3.cpp</title>
<!-- Node1 -->
<g id="Node000001" class="node">
<title>Node1</title>
<g id="a_Node000001"><a xlink:title=" ">
<polygon fill="#999999" stroke="#666666" points="147.12,-76 40.38,-76 40.38,-56 147.12,-56 147.12,-76"/>
<text xml:space="preserve" text-anchor="middle" x="93.75" y="-62.5" font-family="Helvetica,sans-Serif" font-size="10.00">testlab3/testlab3.cpp</text>
</a>
</g>
</g>
<!-- Node2 -->
<g id="Node000002" class="node">
<title>Node2</title>
<g id="a_Node000002"><a xlink:title=" ">
<polygon fill="#e0e0e0" stroke="#999999" points="53.5,-20 0,-20 0,0 53.5,0 53.5,-20"/>
<text xml:space="preserve" text-anchor="middle" x="26.75" y="-6.5" font-family="Helvetica,sans-Serif" font-size="10.00">iostream</text>
</a>
</g>
</g>
<!-- Node1&#45;&gt;Node2 -->
<g id="edge1_Node000001_Node000002" class="edge">
<title>Node1&#45;&gt;Node2</title>
<g id="a_edge1_Node000001_Node000002"><a xlink:title=" ">
<path fill="none" stroke="#63b8ff" d="M82.08,-55.59C72.47,-47.85 58.62,-36.69 47.18,-27.47"/>
<polygon fill="#63b8ff" stroke="#63b8ff" points="49.45,-24.8 39.47,-21.25 45.05,-30.25 49.45,-24.8"/>
</a>
</g>
</g>
<!-- Node3 -->
<g id="Node000003" class="node">
<title>Node3</title>
<g id="a_Node000003"><a xlink:title=" ">
<polygon fill="#e0e0e0" stroke="#999999" points="116.38,-20 71.12,-20 71.12,0 116.38,0 116.38,-20"/>
<text xml:space="preserve" text-anchor="middle" x="93.75" y="-6.5" font-family="Helvetica,sans-Serif" font-size="10.00">cstring</text>
</a>
</g>
</g>
<!-- Node1&#45;&gt;Node3 -->
<g id="edge2_Node000001_Node000003" class="edge">
<title>Node1&#45;&gt;Node3</title>
<g id="a_edge2_Node000001_Node000003"><a xlink:title=" ">
<path fill="none" stroke="#63b8ff" d="M93.75,-55.59C93.75,-49.01 93.75,-39.96 93.75,-31.73"/>
<polygon fill="#63b8ff" stroke="#63b8ff" points="97.25,-31.81 93.75,-21.81 90.25,-31.81 97.25,-31.81"/>
</a>
</g>
</g>
<!-- Node4 -->
<g id="Node000004" class="node">
<title>Node4</title>
<g id="a_Node000004"><a xlink:title=" ">
<polygon fill="#e0e0e0" stroke="#999999" points="177.25,-20 134.25,-20 134.25,0 177.25,0 177.25,-20"/>
<text xml:space="preserve" text-anchor="middle" x="155.75" y="-6.5" font-family="Helvetica,sans-Serif" font-size="10.00">cmath</text>
</a>
</g>
</g>
<!-- Node1&#45;&gt;Node4 -->
<g id="edge3_Node000001_Node000004" class="edge">
<title>Node1&#45;&gt;Node4</title>
<g id="a_edge3_Node000001_Node000004"><a xlink:title=" ">
<path fill="none" stroke="#63b8ff" d="M104.55,-55.59C113.35,-47.93 126,-36.91 136.52,-27.75"/>
<polygon fill="#63b8ff" stroke="#63b8ff" points="138.69,-30.5 143.93,-21.29 134.09,-25.22 138.69,-30.5"/>
</a>
</g>
</g>
</g>
</svg>
